# xmcd CD database file
#
# Track frame offsets:
#	150
#	5857
#	20036
#	33140
#	46620
#	60831
#	66185
#	76036
#	90489
#	104937
#	118535
#	120667
#	138194
#	154102
#	164750
#	182710
#	196668
#	213676
#	227562
#	245492
#
# Disc length: 3592 seconds
#
# Revision: 0
# Processed by: cddbd v1.5.1PL2 Copyright (c) Steve Scherf et al.
# Submitted via: CDex 1.51
#
DISCID=070e0614
DTITLE=Moka Only - Dirty Jazz
DYEAR=2005
DGENRE=Hip-Hop
TTITLE0=Intro
TTITLE1=Travelocity (im leaving)
TTITLE2=You Dont Understand
TTITLE3=Keep This Moving
TTITLE4=Im Conquering
TTITLE5=Interlude
TTITLE6=More Soup  feat. MF DOOM.
TTITLE7=Franks And Beans
TTITLE8=One Time
TTITLE9=Going Berserk
TTITLE10=Interlude 2
TTITLE11=The Robin And The Birchwood
TTITLE12=String Beans (no sunshine)
TTITLE13=Stay (why wont you?)
TTITLE14=Deadlines And Headlines (neva over)
TTITLE15=More Soup remix
TTITLE16=Hundred Grand (japan only)
TTITLE17=Hold Me Close (japan only)
TTITLE18=Lady Gotta Place (japan only)
TTITLE19=Beautiful
EXTD=YEAR: 2005
EXTT0=
EXTT1=
EXTT2=
EXTT3=
EXTT4=
EXTT5=
EXTT6=
EXTT7=
EXTT8=
EXTT9=
EXTT10=
EXTT11=
EXTT12=
EXTT13=
EXTT14=
EXTT15=
EXTT16=
EXTT17=
EXTT18=
EXTT19=
PLAYORDER=
